<?xml version="1.0" encoding="utf-8"?>
<!-- Generator: Adobe Illustrator 18.0.0, SVG Export Plug-In . SVG Version: 6.00 Build 0)  -->
<!DOCTYPE svg PUBLIC "-//W3C//DTD SVG 1.1//EN" "http://www.w3.org/Graphics/SVG/1.1/DTD/svg11.dtd">
<svg version="1.1" id="Layer_1" xmlns="http://www.w3.org/2000/svg" xmlns:xlink="http://www.w3.org/1999/xlink" x="0px" y="0px"
	 viewBox="0 0 62.1 62.1" enable-background="new 0 0 62.1 62.1" xml:space="preserve">
<g>
	<g>
		<path fill="#FFFFFF" d="M25.9,32.1h-6.1v6.1h6.1c0.4,0,3.1,0,3.1-3.1C29,32.1,25.9,32.1,25.9,32.1z"/>
	</g>
	<g>
		<path fill="#FFFFFF" d="M27.3,26.4c0-2.5-1.9-2.5-1.9-2.5h-5.6V29h5.6C25.4,29,27.3,29,27.3,26.4z"/>
	</g>
	<g>
		<path fill="#FFFFFF" d="M41.2,29c-3.1,0-3.1,3.1-3.1,3.1h6.1C44.3,32.1,44.3,29,41.2,29z"/>
	</g>
	<g>
		<path fill="#FFFFFF" d="M31,0C13.9,0,0,13.9,0,31s13.9,31,31,31c17.1,0,31-13.9,31-31S48.2,0,31,0z M37.1,22.9h8.1v2h-8.1V22.9z
			 M32.6,35.1c0,6.3-5.6,6.1-5.6,6.1H15.7V20.9l11,0c3.2,0,5.3,1.8,5.3,5.5c0,3.7-3.1,3.9-3.1,3.9C33,30.3,32.6,35.1,32.6,35.1z
			 M41.2,38.2c3.1,0,3.1-3.1,3.1-3.1h4.1c0,6.1-7.1,6.1-7.1,6.1c-8.1,0-7.6-7.6-7.6-7.6s0-7.6,7.6-7.6c7.1,0,7.1,6.1,7.1,8.1
			c-2,0-10.2,0-10.2,0C38.2,38.2,41.2,38.2,41.2,38.2z"/>
	</g>
</g>
</svg>
