<?xml version="1.0" encoding="utf-8"?>
<!-- Generator: Adobe Illustrator 18.0.0, SVG Export Plug-In . SVG Version: 6.00 Build 0)  -->
<!DOCTYPE svg PUBLIC "-//W3C//DTD SVG 1.1//EN" "http://www.w3.org/Graphics/SVG/1.1/DTD/svg11.dtd">
<svg version="1.1" id="Layer_1" xmlns="http://www.w3.org/2000/svg" xmlns:xlink="http://www.w3.org/1999/xlink" x="0px" y="0px"
	 viewBox="0 0 59.4 59.4" enable-background="new 0 0 59.4 59.4" xml:space="preserve">
<path fill="#010101" d="M7.2,38.8l20,13.3V40.2l-11.1-7.4L7.2,38.8z M5.1,34l6.4-4.3l-6.4-4.3V34z M32.3,52.1l20-13.3l-8.9-6
	l-11.1,7.4V52.1z M29.7,35.8l9-6l-9-6l-9,6L29.7,35.8z M16.1,26.6l11.1-7.4V7.3l-20,13.3L16.1,26.6z M47.9,29.7l6.4,4.3v-8.6
	L47.9,29.7z M43.3,26.6l8.9-6l-20-13.3v11.9L43.3,26.6z M59.4,20.7v18.1c0,0.9-0.4,1.6-1.1,2.1L31.1,59c-0.5,0.3-0.9,0.4-1.4,0.4
	s-1-0.1-1.4-0.4L1.1,40.9C0.4,40.4,0,39.7,0,38.8V20.7c0-0.9,0.4-1.6,1.1-2.1L28.3,0.4C28.8,0.1,29.2,0,29.7,0s1,0.1,1.4,0.4
	l27.2,18.1C59.1,19,59.4,19.8,59.4,20.7z"/>
</svg>
