<?xml version="1.0" encoding="utf-8"?>
<!-- Generator: Adobe Illustrator 18.0.0, SVG Export Plug-In . SVG Version: 6.00 Build 0)  -->
<!DOCTYPE svg PUBLIC "-//W3C//DTD SVG 1.1//EN" "http://www.w3.org/Graphics/SVG/1.1/DTD/svg11.dtd">
<svg version="1.1" id="Layer_1" xmlns="http://www.w3.org/2000/svg" xmlns:xlink="http://www.w3.org/1999/xlink" x="0px" y="0px"
	 viewBox="0 0 64.1 62.6" enable-background="new 0 0 64.1 62.6" xml:space="preserve">
<path fill="#010101" d="M64.1,32.1c0,7-2,13.3-6.1,18.9s-9.3,9.4-15.8,11.6c-0.8,0.1-1.3,0-1.6-0.3C40.2,61.9,40,61.5,40,61v-8.8
	c0-2.7-0.7-4.7-2.2-5.9c1.6-0.2,3-0.4,4.3-0.8c1.3-0.3,2.6-0.9,3.9-1.6c1.4-0.8,2.5-1.7,3.4-2.8c0.9-1.1,1.6-2.6,2.2-4.4
	s0.9-3.9,0.9-6.3c0-3.4-1.1-6.2-3.3-8.6c1-2.5,0.9-5.4-0.3-8.5c-0.8-0.3-1.9-0.1-3.4,0.5s-2.8,1.2-3.8,1.8l-1.6,1
	c-2.6-0.7-5.3-1.1-8-1.1c-2.8,0-5.4,0.4-8,1.1c-0.4-0.3-1-0.7-1.8-1.1c-0.7-0.4-1.9-1-3.5-1.6c-1.6-0.6-2.8-0.8-3.6-0.6
	c-1.2,3.1-1.3,6-0.3,8.5c-2.2,2.4-3.3,5.2-3.3,8.6c0,2.4,0.3,4.5,0.9,6.3c0.6,1.8,1.3,3.3,2.2,4.4s2,2,3.4,2.8
	c1.4,0.8,2.7,1.3,3.9,1.6c1.3,0.3,2.7,0.6,4.3,0.8c-1.1,1-1.8,2.4-2,4.3c-0.6,0.3-1.2,0.5-1.9,0.6s-1.5,0.2-2.4,0.2
	c-0.9,0-1.8-0.3-2.7-0.9s-1.7-1.5-2.3-2.6c-0.5-0.9-1.2-1.6-2-2.2c-0.8-0.6-1.5-0.9-2.1-1l-0.8-0.1c-0.6,0-1,0.1-1.2,0.2
	c-0.2,0.1-0.3,0.3-0.2,0.5s0.2,0.4,0.4,0.6c0.2,0.2,0.3,0.4,0.5,0.5l0.3,0.2c0.6,0.3,1.2,0.8,1.8,1.6c0.6,0.8,1,1.5,1.3,2.1l0.4,1
	c0.4,1.1,1,1.9,1.8,2.6s1.8,1.1,2.8,1.3s2,0.3,2.9,0.3c0.9,0,1.7,0,2.3-0.1l1-0.2c0,1.1,0,2.3,0,3.7c0,1.4,0,2.2,0,2.3
	c0,0.5-0.2,0.9-0.5,1.3c-0.4,0.3-0.9,0.4-1.7,0.3c-6.5-2.1-11.7-6-15.8-11.6S0,39.1,0,32.1C0,26.3,1.4,20.9,4.3,16S11.1,7.2,16,4.3
	S26.3,0,32.1,0s11.2,1.4,16.1,4.3S57,11.1,59.8,16C62.7,20.9,64.1,26.3,64.1,32.1z"/>
</svg>
