<?xml version="1.0" encoding="utf-8"?>
<!-- Generator: Adobe Illustrator 18.0.0, SVG Export Plug-In . SVG Version: 6.00 Build 0)  -->
<!DOCTYPE svg PUBLIC "-//W3C//DTD SVG 1.1//EN" "http://www.w3.org/Graphics/SVG/1.1/DTD/svg11.dtd">
<svg version="1.1" xmlns="http://www.w3.org/2000/svg" xmlns:xlink="http://www.w3.org/1999/xlink" x="0px" y="0px"
	 viewBox="0 0 250.3 225.8" enable-background="new 0 0 250.3 225.8" xml:space="preserve">
<g id="Layer_1">
</g>
<g id="Device2_x5F_a2">
</g>
<g id="Device1_x5F_a2">
</g>
<g id="Device2">
</g>
<g id="Table">
</g>
<g id="Table_x5F_a2">
</g>
<g id="Device1">
</g>
<g id="Human">
</g>
<g id="Layer_9">
	<g>
		<g>
			<path fill="#838589" d="M115.6,119.8H42.8c-1.8,0-3.2-1.5-3.2-3.3l0,0c0-1.8,1.5-3.3,3.2-3.3h72.8c1.8,0,3.2,1.5,3.2,3.3l0,0
				C118.8,118.3,117.4,119.8,115.6,119.8z"/>
			<path fill="#121212" stroke="#000000" stroke-miterlimit="10" d="M112.1,111.7H46.3c-2.6,0-4.6-2.1-4.6-4.6V65.3
				c0-2.6,2.1-4.6,4.6-4.6h65.8c2.6,0,4.6,2.1,4.6,4.6V107C116.7,109.6,114.6,111.7,112.1,111.7z"/>
			<path fill="#686868" d="M117.9,117.8H40.4c-1.8,0-3.2-1.5-3.2-3.3l0,0c0-1.8,1.5-3.3,3.2-3.3h77.5c1.8,0,3.3,1.5,3.3,3.3l0,0
				C121.2,116.3,119.7,117.8,117.9,117.8z"/>
			<g>
				<path fill="#DADCE0" d="M112.9,108.5H45.5c-0.7,0-1.3-0.6-1.3-1.3V65.1c0-0.7,0.6-1.3,1.3-1.3h67.4c0.7,0,1.3,0.6,1.3,1.3v42.1
					C114.2,108,113.6,108.5,112.9,108.5z"/>
				<rect x="44.2" y="63.8" fill="#A7A9AC" width="70" height="3"/>
				<circle fill="#454545" cx="100.4" cy="83.2" r="3.6"/>
				<rect x="49.2" y="78.9" fill="#FDFDFE" width="34.7" height="29.6"/>
				<rect x="89.4" y="89.2" fill="#FDFDFE" width="20.5" height="19.4"/>
				<rect x="65.5" y="72.2" fill="#F15A29" width="10" height="2.4"/>
				<path fill="#DADBDF" d="M53.8,67.5h-8.6c-0.4,0-0.7-0.3-0.7-0.7v-1c0-0.4,0.3-0.7,0.7-0.7h8.6c0.4,0,0.7,0.3,0.7,0.7v1
					C54.5,67.2,54.2,67.5,53.8,67.5z"/>
				<rect x="51.1" y="81.3" fill="#F15A29" width="10" height="2.4"/>
				<rect x="50.6" y="100.8" fill="#F15A29" width="10" height="2.4"/>
				<rect x="61.6" y="100.8" fill="#F15A29" width="10" height="2.4"/>
				<rect x="72.5" y="100.8" fill="#F15A29" width="10" height="2.4"/>
				<path fill="#6D6E71" d="M79.3,85.8H56.6c-0.2,0-0.4-0.2-0.4-0.4l0,0c0-0.2,0.2-0.4,0.4-0.4h22.7c0.2,0,0.4,0.2,0.4,0.4l0,0
					C79.8,85.6,79.6,85.8,79.3,85.8z"/>
				<path fill="#6D6E71" d="M106.4,92H92.3c-0.2,0-0.4-0.2-0.4-0.4l0,0c0-0.2,0.2-0.4,0.4-0.4h14.1c0.2,0,0.4,0.2,0.4,0.4l0,0
					C106.9,91.8,106.7,92,106.4,92z"/>
				<path fill="#6D6E71" d="M106.4,93.5H92.3c-0.2,0-0.4-0.2-0.4-0.4l0,0c0-0.2,0.2-0.4,0.4-0.4h14.1c0.2,0,0.4,0.2,0.4,0.4l0,0
					C106.9,93.3,106.7,93.5,106.4,93.5z"/>
				<path fill="#6D6E71" d="M106.4,95.1H92.3c-0.2,0-0.4-0.2-0.4-0.4l0,0c0-0.2,0.2-0.4,0.4-0.4h14.1c0.2,0,0.4,0.2,0.4,0.4l0,0
					C106.9,94.9,106.7,95.1,106.4,95.1z"/>
				<path fill="#6D6E71" d="M103.5,96.7h-8.3c-0.2,0-0.4-0.2-0.4-0.4v0c0-0.2,0.2-0.4,0.4-0.4h8.3c0.2,0,0.4,0.2,0.4,0.4v0
					C104,96.5,103.8,96.7,103.5,96.7z"/>
				<path fill="#6D6E71" d="M79.3,87.6h-29c-0.2,0-0.4-0.2-0.4-0.4l0,0c0-0.2,0.2-0.4,0.4-0.4h29c0.2,0,0.4,0.2,0.4,0.4l0,0
					C79.8,87.4,79.6,87.6,79.3,87.6z"/>
				<path fill="#6D6E71" d="M79.3,89.3h-29c-0.2,0-0.4-0.2-0.4-0.4l0,0c0-0.2,0.2-0.4,0.4-0.4h29c0.2,0,0.4,0.2,0.4,0.4l0,0
					C79.8,89.1,79.6,89.3,79.3,89.3z"/>
				<path fill="#6D6E71" d="M79.3,91.1H50.1c-0.2,0-0.4-0.2-0.4-0.4l0,0c0-0.2,0.2-0.4,0.4-0.4h29.2c0.2,0,0.4,0.2,0.4,0.4l0,0
					C79.8,90.9,79.6,91.1,79.3,91.1z"/>
				<path fill="#6D6E71" d="M79.3,93.6H56.6c-0.2,0-0.4-0.2-0.4-0.4v0c0-0.2,0.2-0.4,0.4-0.4h22.7c0.2,0,0.4,0.2,0.4,0.4v0
					C79.8,93.4,79.6,93.6,79.3,93.6z"/>
				<path fill="#6D6E71" d="M79.3,95.4h-29c-0.2,0-0.4-0.2-0.4-0.4l0,0c0-0.2,0.2-0.4,0.4-0.4h29c0.2,0,0.4,0.2,0.4,0.4l0,0
					C79.8,95.2,79.6,95.4,79.3,95.4z"/>
				<path fill="#6D6E71" d="M79.3,97.1h-29c-0.2,0-0.4-0.2-0.4-0.4l0,0c0-0.2,0.2-0.4,0.4-0.4h29c0.2,0,0.4,0.2,0.4,0.4l0,0
					C79.8,96.9,79.6,97.1,79.3,97.1z"/>
				<g>
					<path fill="#6D6E71" d="M70.1,98.9H50.3c-0.2,0-0.4-0.2-0.4-0.4l0,0c0-0.2,0.2-0.4,0.4-0.4h19.7c0.2,0,0.4,0.2,0.4,0.4l0,0
						C70.5,98.7,70.3,98.9,70.1,98.9z"/>
				</g>
				<rect x="77.6" y="72.2" fill="#F15A29" width="10" height="2.4"/>
				<rect x="89.8" y="72.2" fill="#F15A29" width="10" height="2.4"/>
				<rect x="101.9" y="72.2" fill="#F15A29" width="10" height="2.4"/>
				<rect x="106.9" y="68" fill="#808285" width="5.8" height="1.7"/>
				<circle fill="#454545" cx="94.3" cy="100.9" r="2"/>
				<circle fill="#454545" cx="99.4" cy="100.9" r="2"/>
				<circle fill="#454545" cx="104.5" cy="100.9" r="2"/>
				<g>
					<path fill="#808285" d="M113.5,65.6l-0.8-0.7c0,0,0-0.1,0-0.1l0,0c0,0,0.1,0,0.1,0l0.8,0.7c0,0,0,0.1,0,0.1l0,0
						C113.6,65.7,113.6,65.7,113.5,65.6z"/>
					<path fill="#808285" d="M112.8,65.5l0.7-0.8c0,0,0.1,0,0.1,0l0,0c0,0,0,0.1,0,0.1l-0.7,0.8c0,0-0.1,0-0.1,0l0,0
						C112.7,65.6,112.7,65.6,112.8,65.5z"/>
				</g>
				<g>
					<path fill="#D1D2D1" d="M64.5,66.8v-0.9c0-0.4-0.3-0.7-0.7-0.7h-8.6c-0.4,0-0.7,0.3-0.7,0.7v1c0,0,0,0,0.1,0H64.5z"/>
					<path fill="#DADBDF" d="M65,66.8h-0.5h-9.9c0,0,0,0-0.1,0c-0.4,0-0.7,0.3-0.7,0.7v1c0,0.4,0.3,0.7,0.7,0.7H65
						c0.4,0,0.7-0.3,0.7-0.7v-1C65.7,67.1,65.4,66.8,65,66.8z"/>
				</g>
				<g>
					<path fill="#939598" d="M64,66.3l-0.7-0.6c0,0,0-0.1,0-0.1l0,0c0,0,0.1,0,0.1,0l0.7,0.6c0,0,0,0.1,0,0.1l0,0
						C64.1,66.3,64.1,66.3,64,66.3z"/>
					<path fill="#939598" d="M63.4,66.2l0.6-0.7c0,0,0.1,0,0.1,0l0,0c0,0,0,0.1,0,0.1l-0.6,0.7c0,0-0.1,0-0.1,0l0,0
						C63.4,66.3,63.4,66.2,63.4,66.2z"/>
				</g>
				<g>
					<path fill="#6D6E71" d="M53.7,66.3l-0.7-0.6c0,0,0-0.1,0-0.1l0,0c0,0,0.1,0,0.1,0l0.7,0.6c0,0,0,0.1,0,0.1l0,0
						C53.8,66.3,53.8,66.3,53.7,66.3z"/>
					<path fill="#6D6E71" d="M53.1,66.2l0.6-0.7c0,0,0.1,0,0.1,0l0,0c0,0,0,0.1,0,0.1l-0.6,0.7c0,0-0.1,0-0.1,0l0,0
						C53.1,66.3,53.1,66.2,53.1,66.2z"/>
				</g>
				<rect x="44.9" y="68" fill="#E6E7E8" width="60.8" height="1.8"/>
				<path fill="#D1D3D4" d="M73.6,69.3H46c-0.2,0-0.4-0.2-0.4-0.4v0c0-0.2,0.2-0.4,0.4-0.4h27.7c0.2,0,0.4,0.2,0.4,0.4v0
					C74.1,69.1,73.9,69.3,73.6,69.3z"/>
			</g>
		</g>
		<g>
			<g>
				<rect x="175.3" y="75.5" fill="#262626" width="13" height="37.3"/>
				<path fill="#262626" d="M193.5,111.6c-2.9,0-5.3-2.4-5.3-5.3h-13c0,2.9-2.4,5.3-5.3,5.3h-6.9v7.8h37.3v-7.8H193.5z"/>
			</g>
			<rect x="119.8" y="13.2" fill="#262626" width="124" height="81"/>
			<g>
				<rect x="124" y="18.2" fill="#363A49" width="115.3" height="72"/>
				<g>
					<rect x="124" y="17.2" fill="#2D2D2D" width="115.3" height="4.3"/>
					<path fill="#363A49" d="M126.2,22.2h11.6c0.4,0,0.8-0.4,0.8-0.8v-1.2c0-0.4-0.4-0.8-0.8-0.8h-11.6c-0.4,0-0.8,0.4-0.8,0.8v1.2
						C125.4,21.8,125.7,22.2,126.2,22.2z"/>
					<path fill="#363A49" d="M186.4,22.2H198c0.4,0,0.8-0.4,0.8-0.8v-1.2c0-0.4-0.4-0.8-0.8-0.8h-11.6c-0.4,0-0.8,0.4-0.8,0.8v1.2
						C185.5,21.8,185.9,22.2,186.4,22.2z"/>
					<path fill="#00AEEF" d="M127.5,27.2h26.6c0.6,0,1-0.4,1-1v0c0-0.6-0.4-1-1-1h-26.6c-0.6,0-1,0.4-1,1v0
						C126.5,26.8,127,27.2,127.5,27.2z"/>
					<path fill="#00AEEF" d="M127.5,41h26.6c0.6,0,1-0.4,1-1l0,0c0-0.6-0.4-1-1-1h-26.6c-0.6,0-1,0.4-1,1v0
						C126.5,40.5,127,41,127.5,41z"/>
					<path fill="#00AEEF" d="M127.5,30.3h26.6c0.6,0,1-0.4,1-1v0c0-0.6-0.4-1-1-1h-26.6c-0.6,0-1,0.4-1,1v0
						C126.5,29.8,127,30.3,127.5,30.3z"/>
					<path fill="#00AEEF" d="M127.5,44h26.6c0.6,0,1-0.4,1-1l0,0c0-0.6-0.4-1-1-1h-26.6c-0.6,0-1,0.4-1,1v0
						C126.5,43.6,127,44,127.5,44z"/>
					<path fill="#00AEEF" d="M127.5,33.4h19.9c0.6,0,1-0.4,1-1v0c0-0.6-0.4-1-1-1h-19.9c-0.6,0-1,0.4-1,1l0,0
						C126.5,32.9,127,33.4,127.5,33.4z"/>
					<path fill="#F7941E" d="M186.9,24.7h4.8c0.6,0,1-0.4,1-1v0c0-0.6-0.4-1-1-1h-4.8c-0.6,0-1,0.4-1,1v0
						C185.9,24.3,186.3,24.7,186.9,24.7z"/>
					<path fill="#A7A9AC" d="M194.6,24.7h4.8c0.6,0,1-0.4,1-1v0c0-0.6-0.4-1-1-1h-4.8c-0.6,0-1,0.4-1,1v0
						C193.6,24.3,194.1,24.7,194.6,24.7z"/>
					<path fill="#39B54A" d="M186.9,27.8h26.6c0.6,0,1-0.4,1-1v0c0-0.6-0.4-1-1-1h-26.6c-0.6,0-1,0.4-1,1v0
						C185.9,27.3,186.3,27.8,186.9,27.8z"/>
					<path fill="#21409A" d="M186.9,30.8h29.9c0.6,0,1-0.4,1-1v0c0-0.6-0.4-1-1-1h-29.9c-0.6,0-1,0.4-1,1v0
						C185.9,30.4,186.3,30.8,186.9,30.8z"/>
					<path fill="#21409A" d="M203.8,59.8h17.9c0.6,0,1-0.4,1-1l0,0c0-0.6-0.4-1-1-1h-17.9c-0.6,0-1,0.4-1,1l0,0
						C202.8,59.4,203.2,59.8,203.8,59.8z"/>
					<path fill="#39B54A" d="M186.9,33.9h19.9c0.6,0,1-0.4,1-1v0c0-0.6-0.4-1-1-1h-19.9c-0.6,0-1,0.4-1,1v0
						C185.9,33.4,186.3,33.9,186.9,33.9z"/>
					<path fill="#00AEEF" d="M127.5,47.1h19.9c0.6,0,1-0.4,1-1v0c0-0.6-0.4-1-1-1h-19.9c-0.6,0-1,0.4-1,1l0,0
						C126.5,46.7,127,47.1,127.5,47.1z"/>
					<path fill="#00AEEF" d="M127.5,54.2h19.9c0.6,0,1-0.4,1-1v0c0-0.6-0.4-1-1-1h-19.9c-0.6,0-1,0.4-1,1l0,0
						C126.5,53.8,127,54.2,127.5,54.2z"/>
					<path fill="#00AEEF" d="M127.5,57.2h19.9c0.6,0,1-0.4,1-1l0,0c0-0.6-0.4-1-1-1h-19.9c-0.6,0-1,0.4-1,1v0
						C126.5,56.7,127,57.2,127.5,57.2z"/>
					<path fill="#00AEEF" d="M127.5,67.2h19.9c0.6,0,1-0.4,1-1l0,0c0-0.6-0.4-1-1-1h-19.9c-0.6,0-1,0.4-1,1v0
						C126.5,66.7,127,67.2,127.5,67.2z"/>
					<path fill="#00AEEF" d="M127.5,80.9h19.9c0.6,0,1-0.4,1-1v0c0-0.6-0.4-1-1-1h-19.9c-0.6,0-1,0.4-1,1l0,0
						C126.5,80.4,127,80.9,127.5,80.9z"/>
					<path fill="#00AEEF" d="M127.5,77.7h19.9c0.6,0,1-0.4,1-1v0c0-0.6-0.4-1-1-1h-19.9c-0.6,0-1,0.4-1,1l0,0
						C126.5,77.2,127,77.7,127.5,77.7z"/>
					<path fill="#00AEEF" d="M127.5,60.1h22.6c0.6,0,1-0.4,1-1v0c0-0.6-0.4-1-1-1h-22.6c-0.6,0-1,0.4-1,1l0,0
						C126.5,59.7,127,60.1,127.5,60.1z"/>
					<path fill="#00AEEF" d="M127.5,70.2h22.6c0.6,0,1-0.4,1-1l0,0c0-0.6-0.4-1-1-1h-22.6c-0.6,0-1,0.4-1,1v0
						C126.5,69.7,127,70.2,127.5,70.2z"/>
					<path fill="#00AEEF" d="M127.5,84.1h22.6c0.6,0,1-0.4,1-1l0,0c0-0.6-0.4-1-1-1h-22.6c-0.6,0-1,0.4-1,1l0,0
						C126.5,83.7,127,84.1,127.5,84.1z"/>
					<path fill="#39B54A" d="M127.5,37.9H139c0.6,0,1-0.4,1-1v0c0-0.6-0.4-1-1-1h-11.4c-0.6,0-1,0.4-1,1v0
						C126.5,37.5,127,37.9,127.5,37.9z"/>
					<path fill="#21409A" d="M186.9,42.5h9.4c0.6,0,1-0.4,1-1v0c0-0.6-0.4-1-1-1h-9.4c-0.6,0-1,0.4-1,1v0
						C185.9,42.1,186.3,42.5,186.9,42.5z"/>
					<path fill="#39B54A" d="M186.9,45.6h21.8c0.6,0,1-0.4,1-1v0c0-0.6-0.4-1-1-1h-21.8c-0.6,0-1,0.4-1,1v0
						C185.9,45.1,186.3,45.6,186.9,45.6z"/>
					<path fill="#39B54A" d="M186.9,48.6h26.7c0.6,0,1-0.4,1-1l0,0c0-0.6-0.4-1-1-1h-26.7c-0.6,0-1,0.4-1,1l0,0
						C185.9,48.2,186.3,48.6,186.9,48.6z"/>
					<path fill="#F7941E" d="M186.9,39.5h4.3c0.6,0,1-0.4,1-1l0,0c0-0.6-0.4-1-1-1h-4.3c-0.6,0-1,0.4-1,1l0,0
						C185.9,39,186.3,39.5,186.9,39.5z"/>
					<path fill="#A7A9AC" d="M194,39.5h4.3c0.6,0,1-0.4,1-1l0,0c0-0.6-0.4-1-1-1H194c-0.6,0-1,0.4-1,1l0,0
						C193,39,193.4,39.5,194,39.5z"/>
					<path fill="#39B54A" d="M186.7,56.8H207c0.6,0,1-0.4,1-1l0,0c0-0.6-0.4-1-1-1h-20.3c-0.6,0-1,0.4-1,1l0,0
						C185.7,56.3,186.2,56.8,186.7,56.8z"/>
					<path fill="#39B54A" d="M186.7,59.8h14.1c0.6,0,1-0.4,1-1l0,0c0-0.6-0.4-1-1-1h-14.1c-0.6,0-1,0.4-1,1l0,0
						C185.7,59.4,186.2,59.8,186.7,59.8z"/>
					<path fill="#39B54A" d="M186.9,62.7h19.9c0.6,0,1-0.4,1-1l0,0c0-0.6-0.4-1-1-1h-19.9c-0.6,0-1,0.4-1,1l0,0
						C185.9,62.3,186.3,62.7,186.9,62.7z"/>
					<path fill="#F7941E" d="M186.9,53.6h6.4c0.6,0,1-0.4,1-1l0,0c0-0.6-0.4-1-1-1h-6.4c-0.6,0-1,0.4-1,1l0,0
						C185.9,53.1,186.3,53.6,186.9,53.6z"/>
					<path fill="#A7A9AC" d="M196.3,53.6h3.8c0.6,0,1-0.4,1-1l0,0c0-0.6-0.4-1-1-1h-3.8c-0.6,0-1,0.4-1,1l0,0
						C195.3,53.1,195.7,53.6,196.3,53.6z"/>
					<path fill="#39B54A" d="M186.9,70.2h26.6c0.6,0,1-0.4,1-1l0,0c0-0.6-0.4-1-1-1h-26.6c-0.6,0-1,0.4-1,1l0,0
						C185.9,69.8,186.3,70.2,186.9,70.2z"/>
					<path fill="#39B54A" d="M186.9,73.3h26.6c0.6,0,1-0.4,1-1l0,0c0-0.6-0.4-1-1-1h-26.6c-0.6,0-1,0.4-1,1l0,0
						C185.9,72.8,186.3,73.3,186.9,73.3z"/>
					<path fill="#39B54A" d="M186.9,76.4h19.9c0.6,0,1-0.4,1-1l0,0c0-0.6-0.4-1-1-1h-19.9c-0.6,0-1,0.4-1,1l0,0
						C185.9,75.9,186.3,76.4,186.9,76.4z"/>
					<path fill="#F7941E" d="M186.9,67.2h6.4c0.6,0,1-0.4,1-1v0c0-0.6-0.4-1-1-1h-6.4c-0.6,0-1,0.4-1,1v0
						C185.9,66.7,186.3,67.2,186.9,67.2z"/>
					<path fill="#A7A9AC" d="M196.1,67.2h6.4c0.6,0,1-0.4,1-1v0c0-0.6-0.4-1-1-1h-6.4c-0.6,0-1,0.4-1,1v0
						C195.1,66.7,195.5,67.2,196.1,67.2z"/>
					<path fill="#39B54A" d="M127.5,51.3H139c0.6,0,1-0.4,1-1l0,0c0-0.6-0.4-1-1-1h-11.4c-0.6,0-1,0.4-1,1v0
						C126.5,50.8,127,51.3,127.5,51.3z"/>
					<path fill="#39B54A" d="M127.5,64.2h9.1c0.6,0,1-0.4,1-1v0c0-0.6-0.4-1-1-1h-9.1c-0.6,0-1,0.4-1,1v0
						C126.5,63.7,127,64.2,127.5,64.2z"/>
					<path fill="#39B54A" d="M127.5,74.4h9.1c0.6,0,1-0.4,1-1l0,0c0-0.6-0.4-1-1-1h-9.1c-0.6,0-1,0.4-1,1v0
						C126.5,74,127,74.4,127.5,74.4z"/>
					<rect x="124.1" y="87.5" fill="#2D2D2D" width="115.4" height="2.7"/>
					<g>
						<path fill="#6D6E71" d="M237.8,20l-1.2-1.1c-0.1-0.1-0.1-0.2,0-0.2l0,0c0.1-0.1,0.2-0.1,0.2,0l1.2,1.1c0.1,0.1,0.1,0.2,0,0.2
							l0,0C237.9,20.1,237.8,20.1,237.8,20z"/>
						<path fill="#6D6E71" d="M236.6,19.8l1.1-1.2c0.1-0.1,0.2-0.1,0.2,0l0,0c0.1,0.1,0.1,0.2,0,0.2l-1.1,1.2
							c-0.1,0.1-0.2,0.1-0.2,0v0C236.5,20,236.5,19.9,236.6,19.8z"/>
					</g>
					<g>
						<circle fill="#0171A0" cx="125.4" cy="88.9" r="1"/>
						<rect x="124.9" y="88.4" fill="#EF4136" width="0.5" height="0.5"/>
						<rect x="124.9" y="88.9" fill="#27AAE1" width="0.5" height="0.5"/>
						<rect x="125.5" y="88.5" fill="#39B54A" width="0.5" height="0.5"/>
						<rect x="125.5" y="89" fill="#D7DF23" width="0.5" height="0.5"/>
					</g>
					<path fill="#39B54A" d="M127.5,24.2h11.3c0.6,0,1-0.4,1-1v0c0-0.6-0.4-1-1-1h-11.3c-0.6,0-1,0.4-1,1v0
						C126.5,23.7,127,24.2,127.5,24.2z"/>
				</g>
			</g>
			<rect x="180.3" y="17.5" fill="#2D2D2D" width="2.7" height="72.1"/>
		</g>
		<g>
			<path fill="#997A5B" d="M33.3,176l6.9-46.4c0.4-2.5-1.4-4.9-3.9-5.3h0c-2.5-0.4-4.9,1.4-5.3,3.9L24,174.6
				c-0.4,2.5,1.4,4.9,3.9,5.3h0C30.5,180.3,32.9,178.5,33.3,176z"/>
			<path fill="#997A5B" d="M218.7,174.9l-6.9-46.4c-0.4-2.5,1.4-4.9,3.9-5.3h0c2.5-0.4,4.9,1.4,5.3,3.9l6.9,46.4
				c0.4,2.5-1.4,4.9-3.9,5.3h0C221.4,179.2,219,177.4,218.7,174.9z"/>
			<path fill="#C49A6C" d="M233.8,158.3l-10.8-3.5c-2.4-0.8-3.8-3.4-3-5.9l0,0c0.8-2.4,3.4-3.8,5.9-3l10.8,3.5
				c2.4,0.8,3.8,3.4,3,5.9v0C238.9,157.7,236.3,159.1,233.8,158.3z"/>
			<path fill="#C49A6C" d="M236.5,184.6l-8.5-57.2c-0.4-2.5,1.4-4.9,3.9-5.3l0,0c2.5-0.4,4.9,1.4,5.3,3.9l8.5,57.2
				c0.4,2.5-1.4,4.9-3.9,5.3h0C239.2,188.9,236.8,187.2,236.5,184.6z"/>
			<path fill="#C49A6C" d="M19.7,159.4l10.8-3.5c2.4-0.8,3.8-3.4,3-5.9h0c-0.8-2.4-3.4-3.8-5.9-3l-10.8,3.5c-2.4,0.8-3.8,3.4-3,5.9
				l0,0C14.6,158.8,17.2,160.2,19.7,159.4z"/>
			<path fill="#C49A6C" d="M15,185.7l8.5-57.2c0.4-2.5-1.4-4.9-3.9-5.3h0c-2.5-0.4-4.9,1.4-5.3,3.9l-8.5,57.2
				c-0.4,2.5,1.4,4.9,3.9,5.3h0C12.3,190,14.6,188.3,15,185.7z"/>
			<path fill="#C49A6C" d="M245.7,128.5H4.7c-2.6,0-4.7-2.1-4.7-4.7v0c0-2.6,2.1-4.7,4.7-4.7h241c2.6,0,4.7,2.1,4.7,4.7v0
				C250.3,126.4,248.2,128.5,245.7,128.5z"/>
		</g>
		<g>
			<path fill="#ED1C24" d="M47.1,181.1c0,0-12.7,13.3-12,17.3c0.7,4,11.3,9,13.7,6.3c0,0,41.5,21.3,68.8,21
				c27.3-0.3,80.5-17,89.5-29c0,0,4.7-2.7,6.7-4.7c0,0,0-5.3-3.7-5.3c0,0-7.3-4.7-7.3-9.7"/>
			<path fill="#A92324" d="M52.2,184c0,0-11.8,9.6-11.2,12.4s10.6,6.4,12.7,4.5c0,0,38.4,15.3,63.9,15s75.2-12.2,83.6-20.8
				c0,0,4.3-1.9,6.2-3.3c0,0,0-3.8-3.4-3.8c0,0-6.8-3.3-6.8-6.9"/>
			<path fill="#DFC6A8" d="M52.2,188.8c0,0-17.8-17.3-15-32.3S69,140.1,69,140.1l1,55.1L52.2,188.8"/>
			<path fill="#FCDFB8" d="M49.6,188.7c0,0-15.9-13.2-13.2-27c2.8-13.8,31.8-15.2,31.8-15.2l1,50.7l-16.8-7"/>
			<path fill="#E0C7A9" d="M201.7,178.3c0,0,14-13.8,14.8-17s0.8-16.3-6-20c-7-3.9-33.8-3.2-27.3-3.3l-0.1,40.4H201.7"/>
			<path fill="#FCDFB8" d="M199.6,177.1c0,0,13.6-11.7,14.3-14.5c0.7-2.8,0.7-13.9-5.8-17.1c-6.5-3.2-26.5-2.8-26.5-2.8l-0.1,34.4
				H199.6"/>
			<path fill="#FDE0B9" d="M69.5,137.2c0,0-14-3.2-15.7-7.7s5.5-19.1,5.5-19.1s10.8,10,13.3,8.2L69.5,137.2z"/>
			<path fill="#121212" d="M69,150.1c0,0-10.6,9.5-12.8,17.5s-3.8,21.5-4,21.3s37.7,22.5,72.7,23s71.8-27.3,76.8-33.5
				c0,0-0.3-6.8-5.3-18.3s-11.8-13.9-11.8-13.9"/>
			<path fill="#1E1E1E" d="M101.6,70.6c0,0,1.2-4.4-2.8-5.1c-3-0.5-5.9-1.3-7.2-1.6c-0.3-0.1-0.5-0.4-0.3-0.7l3.7-8
				c0.2-0.3-0.1-0.7-0.5-0.7h-2.6c-0.4,0-0.6-0.4-0.5-0.7l1.3-2.9c0.2-0.4-0.3-0.9-0.7-0.7c-1.7,0.8-4.3,2-3.4,0.8
				c1.3-1.8,1.4-5.5-0.2-5C86.9,46.4,89.6,35,91,31c0.1-0.4-0.2-0.7-0.6-0.7c-0.7,0.1-1.8,0.2-3.5-0.2c-0.4-0.1-0.5-0.5-0.3-0.8
				c0.7-1.1,2.2-3.5,2.8-5.3c0.1-0.4-0.2-0.6-0.5-0.9c-1-0.6-2.1-1.5-2.5-2.6c-0.1-0.2-0.1-0.5,0.1-0.6c2.4-2.2,19-17.3,29-17.7
				c7.5-0.3,15.2,1.8,16,1c0.5-0.5,1.6-2,2.3-3c0.3-0.3,0.8-0.3,0.9,0.2c0.2,0.7,0.8,1.7,2,2.9c0.3,0.2,0.7,0.2,0.8-0.1l0.5-0.9
				c0.2-0.4,0.8-0.3,1,0.1c0.4,1.6,1.3,4.1,3.2,5.1c2.2,1.1,5.3-0.2,6.8-1c0.4-0.2,0.8,0.1,0.7,0.5c-0.2,1.4-0.5,3.7,0.2,3.7
				c1,0,7,0.3,9.3-0.8c1.9-0.9-1.2,3-2,4c-0.1,0.2-0.2,0.4-0.1,0.6c1.1,2.3,8.2,16.9,6.7,22c0,0.2,0,0.3,0.1,0.4
				c0.3,0.4,1.3,1.5,2.8,1.9c0.4,0.1,0.5,0.5,0.3,0.8c-1.5,2-5.6,8.1-4.3,13.2c0,0.1,0.1,0.2,0.1,0.2c0.5,0.6,3.8,4.4,4.7,3.9
				c0.8-0.4-3.5,0.9-5,1.3c-0.3,0.1-0.4,0.4-0.3,0.7c0.4,1.1,1.5,3.6,2.3,3c0.9-0.6-2.7,0.6-3.7,0.9c-0.2,0.1-0.3,0.2-0.3,0.4
				c-0.3,1.2-1.4,6.1-3.2,7.3"/>
			<path fill="#F26522" d="M71.5,119.2c-5.7,0-17.7-13.7-17.7-13.7s27.7-48,71.3-46.7s68,29.3,71.3,52.3c0,0-12.3,8-15.8,5.9
				l-3.6-23.9c0,0,9.7,62.7,8.7,67c-1,4.3-34.5,16.3-57.5,16c-23-0.3-57.1-13.7-57.1-13.7c-6.7-11.7,4.7-69.3,4.7-69.3"/>
			<path fill="#FDE0B9" d="M183.2,134.5c9.2,0.8,12.5-3.8,13.3-6.6c0.8-2.8-4.3-14.4-4.3-14.4s-9.5,5.3-11.4,3.3L183.2,134.5z"/>
		</g>
	</g>
</g>
</svg>
